name D:\school\WTK\thesis\model\3dpredictsim\Results\debug\Pog_s1_tmt_bCst_d00_k1000_ig24_act_TTC_IAT30.mot
datacolumns 128
datarows 4
range 0.00000000 0.02684227
endheader
time	pelvis_tilt	pelvis_list	pelvis_rotation	pelvis_tx	pelvis_ty	pelvis_tz	hip_flexion_l	hip_adduction_l	hip_rotation_l	hip_flexion_r	hip_adduction_r	hip_rotation_r	knee_angle_l	knee_angle_r	ankle_angle_l	ankle_angle_r	subtalar_angle_l	subtalar_angle_r	tmt_angle_l	tmt_angle_r	mtp_angle_l	mtp_angle_r	lumbar_extension	lumbar_bending	lumbar_rotation	arm_flex_l	arm_add_l	arm_rot_l	arm_flex_r	arm_add_r	arm_rot_r	elbow_flex_l	elbow_flex_r	pro_sup_l	pro_sup_r	glut_med1_l/activation	glut_med2_l/activation	glut_med3_l/activation	glut_min1_l/activation	glut_min2_l/activation	glut_min3_l/activation	semimem_l/activation	semiten_l/activation	bifemlh_l/activation	bifemsh_l/activation	sar_l/activation	add_long_l/activation	add_brev_l/activation	add_mag1_l/activation	add_mag2_l/activation	add_mag3_l/activation	tfl_l/activation	pect_l/activation	grac_l/activation	glut_max1_l/activation	glut_max2_l/activation	glut_max3_l/activation	iliacus_l/activation	psoas_l/activation	quad_fem_l/activation	gem_l/activation	peri_l/activation	rect_fem_l/activation	vas_med_l/activation	vas_int_l/activation	vas_lat_l/activation	med_gas_l/activation	lat_gas_l/activation	soleus_l/activation	tib_post_l/activation	flex_dig_l/activation	flex_hal_l/activation	tib_ant_l/activation	per_brev_l/activation	per_long_l/activation	per_tert_l/activation	ext_dig_l/activation	ext_hal_l/activation	ercspn_l/activation	intobl_l/activation	extobl_l/activation	glut_med1_r/activation	glut_med2_r/activation	glut_med3_r/activation	glut_min1_r/activation	glut_min2_r/activation	glut_min3_r/activation	semimem_r/activation	semiten_r/activation	bifemlh_r/activation	bifemsh_r/activation	sar_r/activation	add_long_r/activation	add_brev_r/activation	add_mag1_r/activation	add_mag2_r/activation	add_mag3_r/activation	tfl_r/activation	pect_r/activation	grac_r/activation	glut_max1_r/activation	glut_max2_r/activation	glut_max3_r/activation	iliacus_r/activation	psoas_r/activation	quad_fem_r/activation	gem_r/activation	peri_r/activation	rect_fem_r/activation	vas_med_r/activation	vas_int_r/activation	vas_lat_r/activation	med_gas_r/activation	lat_gas_r/activation	soleus_r/activation	tib_post_r/activation	flex_dig_r/activation	flex_hal_r/activation	tib_ant_r/activation	per_brev_r/activation	per_long_r/activation	per_tert_r/activation	ext_dig_r/activation	ext_hal_r/activation	ercspn_r/activation	intobl_r/activation	extobl_r/activation	
          0.00000000	         -1.16853884	         -1.08876885	          4.92532602	          0.00000000	          0.87082826	         -0.00652130	          4.05824111	         -7.84064908	         -4.08816226	         23.78643645	         -3.29467420	          9.38079003	        -41.69947964	        -14.54924357	         -8.86773451	          0.67385126	          9.57209577	          1.92202969	          1.62465831	          0.01771109	         22.10687763	          1.59176236	         -6.32524285	          0.69131349	         -9.68464859	         16.62434345	        -29.04731650	          2.67194129	         -5.92290978	        -32.54174105	          2.16774295	         66.83466107	         33.52524302	         86.51662706	         86.51662706	          0.52457096	          0.42711751	          0.35665592	          0.50225825	          0.48009494	          0.44891288	          0.50301644	          0.49868961	          0.47262986	          0.54626289	          0.49084092	          0.52119070	          0.47540815	          0.46044897	          0.45014802	          0.42876721	          0.48924027	          0.48901725	          0.48682633	          0.44707404	          0.42318833	          0.36171874	          0.56584257	          0.57039491	          0.38669508	          0.43609891	          0.42978706	          0.41097056	          0.34010698	          0.33677858	          0.30056478	          0.56086304	          0.52564202	          0.58219344	          0.57598994	          0.47025342	          0.49359837	          0.38066224	          0.37533940	          0.33338456	          0.38033698	          0.29813727	          0.43202406	          0.51497222	          0.30257143	          0.36827297	          0.39989935	          0.45459451	          0.51419470	          0.44263100	          0.45217416	          0.47170493	          0.48846351	          0.46749567	          0.50509758	          0.46160544	          0.48162328	          0.43648567	          0.45142436	          0.46344920	          0.46092625	          0.46101494	          0.46063331	          0.46534843	          0.47242832	          0.49481179	          0.51923740	          0.50460186	          0.42184868	          0.42838682	          0.54838949	          0.48598848	          0.50554336	          0.47136980	          0.45286964	          0.45317155	          0.44929284	          0.24438377	          0.34693829	          0.17266563	          0.45630790	          0.42518083	          0.43420321	          0.62344896	          0.43925330	          0.39206487	          0.49494474	          0.58277337	          0.51213360	          0.56847086	          0.50390089	          0.39197515	
          0.00894742	         -1.20517465	         -0.62016568	          5.05570622	          0.01325243	          0.87088314	         -0.00667891	          4.43334293	         -7.82873877	         -4.11216275	         23.30531086	         -3.46385989	          9.86123917	        -43.06844973	        -15.30655934	        -11.47891133	          0.66258536	         10.60573875	          1.87668227	          1.35032162	         -0.01793896	         21.51853189	          1.33951807	         -6.01751003	          0.84600851	        -10.13310133	         16.73123935	        -28.95522222	          2.80236164	         -6.32712720	        -32.60443251	          2.16354708	         67.24734211	         33.22040137	         86.51662706	         86.51662706	          0.52360187	          0.41687697	          0.34336451	          0.50077389	          0.47739342	          0.44444932	          0.50196471	          0.50460116	          0.47330762	          0.56152722	          0.49385129	          0.53494364	          0.48134156	          0.46190327	          0.44994431	          0.42140942	          0.49349564	          0.49203203	          0.49171945	          0.44424225	          0.41941754	          0.35186587	          0.58335251	          0.58862371	          0.38022000	          0.43159487	          0.42392140	          0.40287581	          0.32173724	          0.31783735	          0.28022326	          0.54777645	          0.51791288	          0.53845458	          0.55910806	          0.46879218	          0.48965459	          0.40504431	          0.37208110	          0.33047438	          0.38025742	          0.30452323	          0.43642508	          0.53769634	          0.33791768	          0.39446904	          0.43721384	          0.46736562	          0.50889274	          0.45398378	          0.46112777	          0.47653826	          0.50718089	          0.48160839	          0.51870244	          0.45955804	          0.47359343	          0.43316505	          0.45454614	          0.46446660	          0.46451808	          0.47646068	          0.45892833	          0.46490633	          0.47331191	          0.49448124	          0.51875857	          0.51042573	          0.40156102	          0.40743670	          0.52633991	          0.47933826	          0.50010180	          0.45154207	          0.45384885	          0.45445025	          0.45073451	          0.24677375	          0.34784166	          0.17569210	          0.46127828	          0.42492372	          0.43432852	          0.60651791	          0.44505621	          0.38789572	          0.50185217	          0.58767478	          0.51141806	          0.53442155	          0.48572015	          0.38180209	
          0.01789484	         -1.23380466	         -0.13363453	          5.18095352	          0.02664169	          0.87080048	         -0.00686783	          4.90488543	         -7.82010318	         -4.00112603	         22.70486800	         -3.76452888	         10.24532546	        -44.55743742	        -15.97337061	        -13.87666532	          0.74071171	         11.84512072	          1.99027039	          0.96845861	         -0.00257480	         20.07235241	          1.24155833	         -5.69505512	          0.98439119	        -10.53802431	         16.78446893	        -28.87282576	          2.93435911	         -6.71446988	        -32.66899376	          2.15089320	         67.55132704	         32.93522481	         86.51662706	         86.51662706	          0.53129676	          0.40815719	          0.32950921	          0.50470687	          0.47809970	          0.44111041	          0.50107589	          0.50605491	          0.47120421	          0.57958260	          0.49972934	          0.54371848	          0.48055978	          0.45810006	          0.44671565	          0.41031343	          0.50077733	          0.49439871	          0.49476808	          0.44111658	          0.41472952	          0.33840882	          0.61078025	          0.61391029	          0.36925302	          0.42644604	          0.41843681	          0.40357161	          0.30352585	          0.29908645	          0.26077157	          0.53299314	          0.50950644	          0.49154960	          0.53968093	          0.46714356	          0.48444776	          0.44364758	          0.36975377	          0.32881225	          0.38201124	          0.31656444	          0.44309652	          0.55693725	          0.33857917	          0.44173583	          0.46914000	          0.48913701	          0.51824517	          0.46551919	          0.47151786	          0.48401014	          0.51409979	          0.48797080	          0.52451728	          0.45162488	          0.46585155	          0.41835734	          0.44660921	          0.45935837	          0.46357072	          0.48663054	          0.45895417	          0.46205108	          0.46955471	          0.50013961	          0.52963292	          0.51717483	          0.37825845	          0.38444936	          0.50667946	          0.47516055	          0.49911789	          0.44042381	          0.45944842	          0.46047906	          0.45694842	          0.24673233	          0.34843707	          0.17746382	          0.48440436	          0.42704487	          0.43742613	          0.63391949	          0.42839764	          0.36901406	          0.49788450	          0.58120333	          0.51483421	          0.49534618	          0.48364969	          0.36538115	
          0.02684227	         -1.25555160	          0.36332970	          5.25050444	          0.04002851	          0.87059574	         -0.00698235	          5.47176780	         -7.79376077	         -3.74508765	         22.07999851	         -4.13446653	         10.42527960	        -46.17288792	        -16.55604883	        -16.06088017	          0.62059865	         13.21113414	          1.89174006	          0.66510590	         -0.02220479	         17.39891900	          1.14638002	         -5.37897481	          1.10183128	        -10.86457453	         16.78981635	        -28.80748345	          3.03468958	         -7.04758184	        -32.72616301	          2.14158629	         67.74812781	         32.69854395	         86.51662706	         86.51662706	          0.54051061	          0.40322182	          0.31930265	          0.50997595	          0.48091264	          0.44024395	          0.49979634	          0.50573851	          0.46850162	          0.59385739	          0.50713629	          0.54440615	          0.47532271	          0.45111962	          0.44132128	          0.39733132	          0.50883727	          0.49571839	          0.49598283	          0.43811476	          0.41003575	          0.32461792	          0.63253988	          0.63378995	          0.35939806	          0.42235598	          0.41466002	          0.40924671	          0.28720897	          0.28210253	          0.24339513	          0.51441929	          0.49917154	          0.44399105	          0.51705004	          0.46463214	          0.47736078	          0.50542076	          0.37190164	          0.33098723	          0.39047538	          0.34353223	          0.45399070	          0.58735620	          0.34473477	          0.47561033	          0.49192032	          0.50711241	          0.52909542	          0.47367468	          0.47964296	          0.49050243	          0.51388561	          0.48891022	          0.52427167	          0.44075748	          0.46017185	          0.40293225	          0.43654528	          0.45394281	          0.46174641	          0.49338476	          0.46020613	          0.45882306	          0.46441385	          0.50567130	          0.53952459	          0.52268103	          0.35748148	          0.36430207	          0.49216985	          0.47199747	          0.49838643	          0.43816338	          0.46752693	          0.46896060	          0.46564615	          0.24957264	          0.35111288	          0.18285512	          0.50005977	          0.42915088	          0.44042763	          0.63959553	          0.41457978	          0.35461816	          0.49329866	          0.57198630	          0.51653368	          0.46088406	          0.47229898	          0.34952681	
